<svg xmlns="http://www.w3.org/2000/svg" width="430" height="430" style="width:100%;height:100%;transform:translate3d(0,0,0);content-visibility:visible" viewBox="0 0 430 430"><defs><clipPath id="g"><path d="M0 0h430v430H0z"/></clipPath><clipPath id="m"><path d="M0 0h430v430H0z"/></clipPath><clipPath id="n"><path d="M0 0h430v430H0z"/></clipPath><clipPath id="h"><path d="M0 0h430v430H0z"/></clipPath><clipPath id="k"><path d="M0 0h430v430H0z"/></clipPath><clipPath id="i"><path d="M0 0h430v430H0z"/></clipPath><filter id="a" width="100%" height="100%" x="0%" y="0%" filterUnits="objectBoundingBox"><feComponentTransfer in="SourceGraphic"><feFuncA tableValues="1.0 0.0" type="table"/></feComponentTransfer></filter><filter id="c" width="100%" height="100%" x="0%" y="0%" filterUnits="objectBoundingBox"><feComponentTransfer in="SourceGraphic"><feFuncA tableValues="1.0 0.0" type="table"/></feComponentTransfer></filter><filter id="e" width="100%" height="100%" x="0%" y="0%" filterUnits="objectBoundingBox"><feComponentTransfer in="SourceGraphic"><feFuncA tableValues="1.0 0.0" type="table"/></feComponentTransfer></filter><path id="b" fill="red" d="M-53.05 0c0 29.179 23.771 52.95 52.95 52.95 29.179 0 52.95-23.771 52.95-52.95 0-29.179-23.771-52.95-52.95-52.95-9.351 0-18.118 2.515-25.799 6.76-4.281 2.366-8.224 5.295-11.604 8.787C-47.079-27.827-53.05-14.646-53.05 0z" style="display:block" transform="translate(295.3 269.2) scale(1.3646)"/><path id="d" style="display:none"/><path id="f" style="display:none"/><mask id="o" mask-type="alpha"><g filter="url(#a)"><path fill="#fff" d="M0 0h430v430H0z" opacity="0"/><use xmlns:ns1="http://www.w3.org/1999/xlink" ns1:href="#b"/></g></mask><mask id="l" mask-type="alpha"><g filter="url(#c)"><path fill="#fff" d="M0 0h430v430H0z" opacity="0"/><use xmlns:ns2="http://www.w3.org/1999/xlink" ns2:href="#d"/></g></mask><mask id="j" mask-type="alpha"><g filter="url(#e)"><path fill="#fff" d="M0 0h430v430H0z" opacity="0"/><use xmlns:ns3="http://www.w3.org/1999/xlink" ns3:href="#f"/></g></mask></defs><g clip-path="url(#g)"><g clip-path="url(#h)" style="display:none"><g fill="none" clip-path="url(#i)" mask="url(#j)" style="display:none"><path class="primary" style="display:none"/><path class="primary" style="display:none"/><path class="primary" style="display:none"/><path class="primary" style="display:none"/><path class="primary" style="display:none"/><path class="primary" style="display:none"/><path class="primary" style="display:none"/><path class="primary" style="display:none"/></g><g fill="none" clip-path="url(#k)" mask="url(#l)" style="display:none"><path class="primary" style="display:none"/><path class="primary" style="display:none"/><path class="primary" style="display:none"/><path class="primary" style="display:none"/><path class="primary" style="display:none"/><path class="primary" style="display:none"/><path class="primary" style="display:none"/><path class="primary" style="display:none"/></g><g style="display:none"><path class="primary"/><path fill="none" class="primary"/></g><g fill="none" style="display:none"><path class="secondary"/><path class="secondary"/></g></g><g clip-path="url(#m)" style="display:block"><g clip-path="url(#n)" mask="url(#o)" style="display:block"><g style="display:block"><path fill="#121331" d="M203.475 337.8c0-6.28 5.145-11.425 11.425-11.425 6.28 0 11.425 5.145 11.425 11.425 0 6.28-5.145 11.425-11.425 11.425-6.28 0-11.425-5.145-11.425-11.425z" class="primary"/><path fill="none" stroke="#121331" stroke-linecap="round" stroke-linejoin="round" stroke-width="12" d="M203.475 337.8c0-6.28 5.145-11.425 11.425-11.425 6.28 0 11.425 5.145 11.425 11.425 0 6.28-5.145 11.425-11.425 11.425-6.28 0-11.425-5.145-11.425-11.425z" class="primary"/></g><path fill="none" stroke="#121331" stroke-linecap="round" stroke-linejoin="round" stroke-width="12" d="M-24.473-48.062C-18.058-54.092-9.438-57.8 0-57.8c9.438 0 18.058 3.708 24.473 9.738M-71.926-89.54C-53.868-108.751-28.264-120.8 0-120.8c28.264 0 53.868 12.049 71.926 31.26m-191.151-48.771C-88.943-169.093-46.622-188.3 0-188.3s88.943 19.207 119.225 49.989" class="primary" style="display:block" transform="translate(214.9 337.8)"/><path fill="none" stroke="#121331" stroke-linecap="round" stroke-linejoin="round" stroke-width="12" d="M-168.55-185.478c42.81-43.516 102.64-70.67 168.55-70.67 65.91 0 125.741 27.154 168.55 70.67" class="primary" style="display:block" transform="translate(214.9 337.8)"/></g><path fill="none" stroke="#08A88A" stroke-linecap="round" stroke-linejoin="round" stroke-width="12" d="M242.25 269.2c0 29.179 23.771 52.95 52.95 52.95 29.179 0 52.95-23.771 52.95-52.95 0-29.179-23.771-52.95-52.95-52.95-9.351 0-18.118 2.515-25.799 6.76-4.281 2.366-8.224 5.295-11.604 8.787-9.576 9.576-15.547 22.757-15.547 37.403zM275 249.938l38.5 38.5m0-38.5-38.5 38.5" class="secondary" style="display:block"/></g></g></svg>